<svg width="60" height="60" viewBox="0 0 60 60" fill="none" xmlns="http://www.w3.org/2000/svg">
<g clip-path="url(#clip0_60_21)">
<path d="M10.8516 2.46094C7.10156 2.46094 3.34687 5.27344 3.34687 10.8984L10.8516 25.8984L18.3516 10.8984C18.3516 5.27344 14.6016 2.46094 10.8516 2.46094ZM43.9336 7.03125C43.125 7.06523 42.3398 7.21875 41.6836 7.35937L42.1289 9.42188C42.7852 9.27539 43.4648 9.18281 44.0391 9.14062L43.9336 7.03125ZM10.8516 7.14844C12.9258 7.14844 14.6016 8.82773 14.6016 10.8984C14.6016 12.9727 12.9258 14.6484 10.8516 14.6484C8.78086 14.6484 7.10156 12.9727 7.10156 10.8984C7.10156 8.82773 8.78086 7.14844 10.8516 7.14844ZM46.2656 7.17188L45.9141 9.24609C46.4883 9.3668 47.0625 9.51797 47.5664 9.82031L48.5859 7.96875C47.8711 7.58789 47.0742 7.2457 46.2656 7.17188ZM39.5273 7.95703C38.8125 8.23594 38.0977 8.48555 37.4883 8.73047L38.3203 10.6641C38.9648 10.3898 39.6445 10.1508 40.2188 9.94922L39.5273 7.95703ZM50.5078 9.52734L48.9023 10.8984C49.3242 11.3812 49.6523 11.9766 49.9102 12.457L51.7969 11.5078C51.3984 10.7402 51.0469 10.159 50.5078 9.52734ZM35.5313 9.63281C34.8164 9.99727 34.2305 10.3219 33.5977 10.6406L34.6289 12.4922C35.2383 12.1406 35.9063 11.8008 36.4453 11.5313L35.5313 9.63281ZM31.7461 11.7305C31.125 12.0937 30.5156 12.457 29.918 12.8555L31.0664 14.6133C31.6406 14.2383 32.2383 13.8867 32.8242 13.5352L31.7461 11.7305ZM52.5234 13.8281C51.832 13.9453 51.1289 14.0273 50.4375 14.1094C50.4844 14.6953 50.4492 15.3281 50.332 15.8203L52.3828 16.3008C52.5 15.457 52.6055 14.5898 52.5234 13.8281ZM28.1367 14.0273C27.5508 14.4258 26.9766 14.8359 26.3906 15.2344L27.6094 16.957C28.1719 16.5469 28.7461 16.1602 29.3203 15.7617L28.1367 14.0273ZM24.668 16.5C24.082 16.9219 23.4727 17.3906 22.9688 17.7773L24.2461 19.4531C24.8906 18.9844 25.3359 18.6328 25.9219 18.1992L24.668 16.5ZM49.6289 17.4375C49.2773 17.9766 48.8672 18.5156 48.457 18.9258L49.9922 20.3906C50.4961 19.793 51.0352 19.1836 51.4102 18.5742L49.6289 17.4375ZM21.293 19.0898C20.7188 19.5352 20.1445 19.9922 19.6406 20.4141L20.9766 22.043C21.5273 21.5859 22.0898 21.1172 22.6055 20.7422L21.293 19.0898ZM47.0039 20.2734C46.4648 20.707 45.9023 21.1289 45.3867 21.4805L46.5938 23.2148C47.2148 22.793 47.8242 22.3359 48.3516 21.9141L47.0039 20.2734ZM18.0117 21.7852C17.4609 22.2305 16.9336 22.6992 16.3945 23.1563L17.7656 24.7617C18.293 24.3047 18.8203 23.8477 19.3594 23.4023L18.0117 21.7852ZM43.6641 22.6055C43.0664 22.957 42.4453 23.3203 41.8828 23.625L42.8906 25.4883C43.5234 25.1016 44.2383 24.7617 44.7656 24.4102L43.6641 22.6055ZM14.7891 24.5508C14.2617 25.0195 13.7461 25.4883 13.2188 25.9688L14.6367 27.5391C15.1523 27.0703 15.6797 26.6016 16.1953 26.1328L14.7891 24.5508ZM40.043 24.5977C39.4219 24.9023 38.8008 25.2188 38.1797 25.5234L39.082 27.4219C39.8086 27.0703 40.3477 26.7773 41.0039 26.4727L40.043 24.5977ZM36.293 26.4023C35.6484 26.6953 35.0273 26.9766 34.3711 27.2461L35.2266 29.1797C35.8711 28.8984 36.5156 28.6055 37.1602 28.3125L36.293 26.4023ZM11.6719 27.4219C11.0742 27.9492 10.6582 28.3594 10.1133 28.8867L11.6016 30.4102C12.1523 29.8828 12.5977 29.4258 13.1133 28.9805L11.6719 27.4219ZM32.4492 28.1016C31.8047 28.3711 31.1602 28.6523 30.5156 28.9219L31.3359 30.8789C31.9922 30.6094 32.6367 30.3281 33.2813 30.0469L32.4492 28.1016ZM28.5703 29.7422C27.9258 30.0234 27.2813 30.3047 26.625 30.5625L27.4453 32.5195C28.0898 32.25 28.7461 31.9687 29.3906 31.6992L28.5703 29.7422ZM50.2266 30.5859C46.4766 30.5859 42.7266 33.3984 42.7266 39.0234L50.2266 54.0234L57.7266 39.0234C57.7266 33.3984 53.9766 30.5859 50.2266 30.5859ZM24.6797 31.3828C24.0117 31.6875 23.3086 31.9687 22.7344 32.2148L23.5664 34.1602C24.2578 33.8672 24.9141 33.5859 25.5 33.3281L24.6797 31.3828ZM20.7891 33.0469C20.1562 33.3398 19.418 33.668 18.8555 33.9258L19.7227 35.8477C20.4141 35.543 21.0234 35.2383 21.6328 34.9805L20.7891 33.0469ZM16.9219 34.8047C16.2656 35.1211 15.5859 35.4492 15 35.7422L15.9492 37.6289C16.582 37.3008 17.2383 36.9961 17.8125 36.7148L16.9219 34.8047ZM50.2266 35.2734C52.3008 35.2734 53.9766 36.9492 53.9766 39.0234C53.9766 41.0977 52.3008 42.7734 50.2266 42.7734C48.1523 42.7734 46.4766 41.0977 46.4766 39.0234C46.4766 36.9492 48.1523 35.2734 50.2266 35.2734ZM13.1016 36.7148C12.4805 37.0547 11.8594 37.4062 11.2266 37.7695L12.2813 39.5977C12.8789 39.2461 13.4883 38.918 14.0977 38.5898L13.1016 36.7148ZM9.38672 38.9062C8.7293 39.2813 8.09414 39.7852 7.54688 40.1484L8.82422 41.8359C9.40664 41.4141 10.0336 40.9805 10.5352 40.6758L9.38672 38.9062ZM5.88281 41.5547C5.32031 42.0703 4.76602 42.668 4.33594 43.1719L5.94141 44.543C6.39258 43.9922 6.78516 43.582 7.3125 43.1133L5.88281 41.5547ZM31.4063 41.707L31.5938 43.8047C32.2031 43.6992 32.8125 43.7695 33.4219 43.8633L33.7852 41.7891C33.0117 41.6719 32.1914 41.5898 31.4063 41.707ZM27.0469 42.8789L27.8438 44.8359C28.4531 44.5664 29.0859 44.3555 29.7305 44.1562C29.5078 43.4883 29.3438 42.8086 29.168 42.1289C28.4297 42.3398 27.6914 42.6211 27.0469 42.8789ZM36.1289 42.7734L34.9336 44.5078C35.4258 44.8711 35.9063 45.2578 36.293 45.7383L37.8867 44.3555C37.2891 43.7461 36.832 43.1719 36.1289 42.7734ZM25.0547 43.8281C24.4102 44.1562 23.7891 44.5313 23.168 44.8945L24.2344 46.7109C24.8438 46.3828 25.4414 45.9961 26.0391 45.6797L25.0547 43.8281ZM3.04805 45.1172C2.69414 45.8789 2.40703 46.6992 2.27344 47.4258L4.34766 47.7891C4.47422 47.1211 4.65586 46.6406 4.92188 46.0664C4.27852 45.7852 3.66445 45.4453 3.04805 45.1172ZM21.3398 46.0312C20.7422 46.418 20.1563 46.8047 19.5703 47.2031L20.7422 48.9609C21.3281 48.5742 21.9023 48.1758 22.4883 47.7891L21.3398 46.0312ZM39.2344 46.1719L37.4648 47.3203C37.8398 47.8828 38.2031 48.4688 38.543 49.0664L40.3711 48.0117C39.9609 47.3555 39.668 46.7695 39.2344 46.1719ZM17.8242 48.3984C17.2383 48.7852 16.6523 49.1602 16.0781 49.5703L17.25 51.3281C17.8125 50.918 18.4102 50.5312 19.0078 50.1328L17.8242 48.3984ZM4.37109 49.5117C3.69258 49.6523 3.0082 49.7695 2.32617 49.8984C2.44922 50.7187 2.77852 51.5156 3.07617 52.1484L4.98047 51.2344C4.72617 50.6484 4.48477 50.0391 4.37109 49.5117ZM41.4141 49.8398L39.5859 50.8945C39.9492 51.5273 40.3711 52.207 40.7109 52.7461L42.4805 51.6094C42.082 50.9883 41.7422 50.4023 41.4141 49.8398ZM14.3438 50.7187C13.7578 51.082 13.1836 51.4336 12.5742 51.7734L13.6172 53.6133C14.2383 53.25 14.8594 52.8867 15.457 52.5L14.3438 50.7187ZM5.98828 52.6289L4.54687 54.1758C5.19844 54.7969 6.00234 55.207 6.87891 55.3945L7.34766 53.3438C6.82734 53.2383 6.34102 52.9805 5.98828 52.6289ZM10.793 52.6641C10.2059 52.9336 9.59648 53.1445 8.96484 53.2734L9.44531 55.3359C10.1977 55.1836 10.9055 54.9023 11.6133 54.6094L10.793 52.6641ZM43.6406 53.2266L42.0117 54.5508C42.5156 55.1719 43.1367 55.7695 43.6758 56.1914L44.9766 54.5273C44.4609 54.1289 44.0156 53.6484 43.6406 53.2266ZM46.4648 55.2773L45.9375 57.3281C46.8633 57.5156 47.5547 57.5742 48.4219 57.4805L48.1641 55.3828C47.5898 55.4766 47.0273 55.418 46.4648 55.2773Z" fill="#615FD7"/>
</g>
<defs>
<clipPath id="clip0_60_21">
<rect width="60" height="60" fill="white"/>
</clipPath>
</defs>
</svg>
