<svg width="86" height="85" viewBox="0 0 86 85" fill="none" xmlns="http://www.w3.org/2000/svg">
<mask id="mask0_15_11" style="mask-type:luminance" maskUnits="userSpaceOnUse" x="5" y="6" width="76" height="74">
<path d="M64.25 26.5625C66.5983 26.5625 68.8504 25.6297 70.5109 23.9692C72.1713 22.3087 73.1042 20.0566 73.1042 17.7084C73.1042 15.3601 72.1713 13.108 70.5109 11.4475C68.8504 9.78703 66.5983 8.85419 64.25 8.85419C61.9017 8.85419 59.6496 9.78703 57.9892 11.4475C56.3287 13.108 55.3958 15.3601 55.3958 17.7084C55.3958 20.0566 56.3287 22.3087 57.9892 23.9692C59.6496 25.6297 61.9017 26.5625 64.25 26.5625Z" fill="white" stroke="white" stroke-width="4"/>
<path d="M21.75 29.6969L35.922 24.7881L55.3958 34.0833L35.922 48.5988L55.3958 61.4196L43.0142 77.9131M63.0458 38.3262L67.7952 40.9098L78.4167 30.9294M30.3368 55.861L25.0774 62.7885L7.59042 72.5989" stroke="white" stroke-width="4" stroke-linecap="round" stroke-linejoin="round"/>
</mask>
<g mask="url(#mask0_15_11)">
<path d="M0.5 0H85.5V85H0.5V0Z" fill="#615FD7"/>
</g>
</svg>
