<svg width="86" height="85" viewBox="0 0 86 85" fill="none" xmlns="http://www.w3.org/2000/svg">
<g clip-path="url(#clip0_21_62)">
<mask id="mask0_21_62" style="mask-type:luminance" maskUnits="userSpaceOnUse" x="0" y="0" width="86" height="85">
<path d="M0.5 0H85.5V85H0.5V0Z" fill="white"/>
</mask>
<g mask="url(#mask0_21_62)">
<path d="M12.1733 72.9654L34.7125 50.4262M63.0954 40.4033L56.3486 60.6439C56.2409 60.9684 56.0565 61.2621 55.8111 61.5001C55.5657 61.738 55.2666 61.9133 54.939 62.011L13.5794 74.3041C13.2068 74.4148 12.8109 74.4211 12.435 74.3225C12.059 74.2238 11.7173 74.0239 11.447 73.7445C11.1768 73.4651 10.9883 73.117 10.9022 72.7379C10.8161 72.3589 10.8356 71.9635 10.9586 71.5948L24.3886 31.3118C24.4848 31.0226 24.6422 30.7575 24.8499 30.5344C25.0577 30.3114 25.311 30.1356 25.5927 30.0191L44.6717 22.1637C45.0596 22.0035 45.4862 21.9618 45.8978 22.0437C46.3093 22.1256 46.6874 22.3276 46.9844 22.6241L62.5819 38.2252C62.8616 38.5045 63.0579 38.8564 63.1486 39.2412C63.2393 39.626 63.2209 40.0284 63.0954 40.4033Z" stroke="#615FD7" stroke-width="4" stroke-linecap="round" stroke-linejoin="round"/>
<path d="M63.5133 39.1567L73.5292 29.1373C74.8571 27.809 75.6031 26.0077 75.6031 24.1294C75.6031 22.2512 74.8571 20.4498 73.5292 19.1215L66.0208 11.6061C65.363 10.948 64.5821 10.426 63.7225 10.0699C62.8629 9.71371 61.9416 9.5304 61.0111 9.5304C60.0807 9.5304 59.1594 9.71371 58.2998 10.0699C57.4402 10.426 56.6592 10.948 56.0015 11.6061L45.9856 21.6254M42.2244 42.9109C41.7309 42.4176 41.1451 42.0264 40.5005 41.7596C39.8558 41.4927 39.1649 41.3555 38.4672 41.3556C37.7695 41.3558 37.0786 41.4934 36.4341 41.7605C35.7896 42.0277 35.204 42.4192 34.7107 42.9126C34.2175 43.4061 33.8263 43.9919 33.5594 44.6365C33.2926 45.2812 33.1553 45.9721 33.1555 46.6698C33.1557 47.3675 33.2932 48.0584 33.5604 48.7029C33.8275 49.3474 34.219 49.933 34.7125 50.4263C35.7091 51.4224 37.0606 51.9819 38.4697 51.9815C39.8788 51.9812 41.23 51.4211 42.2261 50.4245C43.2223 49.4279 43.7817 48.0764 43.7814 46.6673C43.7811 45.2582 43.221 43.907 42.2244 42.9109Z" stroke="#615FD7" stroke-width="4" stroke-linecap="round" stroke-linejoin="round"/>
</g>
</g>
<defs>
<clipPath id="clip0_21_62">
<rect width="85" height="85" fill="white" transform="translate(0.5)"/>
</clipPath>
</defs>
</svg>
