<svg width="34" height="34" viewBox="0 0 34 34" fill="none" xmlns="http://www.w3.org/2000/svg">
<mask id="mask0_21_272" style="mask-type:luminance" maskUnits="userSpaceOnUse" x="-1" y="0" width="35" height="35">
<path d="M25.9994 9.6927C26.9941 9.6927 27.948 9.28746 28.6513 8.56613C29.3546 7.8448 29.7498 6.86647 29.7498 5.84635C29.7498 4.82624 29.3546 3.8479 28.6513 3.12657C27.948 2.40524 26.9941 2 25.9994 2C25.0047 2 24.0508 2.40524 23.3475 3.12657C22.6442 3.8479 22.249 4.82624 22.249 5.84635C22.249 6.86647 22.6442 7.8448 23.3475 8.56613C24.0508 9.28746 25.0047 9.6927 25.9994 9.6927Z" fill="white" stroke="white" stroke-width="4"/>
<path d="M7.9976 11.0543L14.0005 8.92191L22.249 12.9598L14.0005 19.2655L22.249 24.835L17.0045 32M25.4894 14.803L27.501 15.9253L32 11.5897M11.6347 22.4203L9.40699 25.4297L2 29.6914" stroke="white" stroke-width="4" stroke-linecap="round" stroke-linejoin="round"/>
</mask>
<g mask="url(#mask0_21_272)">
<path d="M-1.00317 -1.84634H35.0004V35.0786H-1.00317V-1.84634Z" fill="black"/>
</g>
</svg>
