<svg width="146" height="165" viewBox="0 0 146 165" fill="none" xmlns="http://www.w3.org/2000/svg">
<g clip-path="url(#clip0_3_17)">
<path d="M54.4664 72.473H53.5143L70.9947 89.9534L85.3502 75.598H89.7691L70.9947 94.3724L49.8766 73.2786C49.3069 72.709 48.8023 72.0986 48.3629 71.4476C47.9234 70.7965 47.5409 70.0967 47.2154 69.348H53.148L60.0572 62.4632L70.9947 73.3763L78.8072 65.5882L82.5914 69.348H91.2584C91.7792 68.5179 92.178 67.639 92.4547 66.7112C92.7314 65.7835 92.8697 64.8314 92.8697 63.8548C92.8697 62.4388 92.6093 61.1204 92.0885 59.8997C91.5676 58.679 90.8434 57.6211 89.9156 56.7259C88.9879 55.8307 87.9137 55.1227 86.693 54.6019C85.4723 54.081 84.1458 53.8206 82.7135 53.8206C81.3463 53.8206 80.1337 54.0322 79.0758 54.4554C78.0178 54.8786 77.0413 55.4482 76.1461 56.1644C75.2509 56.8805 74.3964 57.6699 73.5826 58.5325C72.7688 59.3952 71.9062 60.2985 70.9947 61.2425C70.1158 60.3636 69.2613 59.4765 68.4312 58.5814C67.6012 57.6862 66.7385 56.8805 65.8434 56.1644C64.9482 55.4482 63.9635 54.8623 62.8893 54.4066C61.815 53.9508 60.6106 53.723 59.276 53.723C57.8762 53.723 56.566 53.9834 55.3453 54.5042C54.1246 55.025 53.0504 55.7493 52.1227 56.6771C51.1949 57.6048 50.4706 58.679 49.9498 59.8997C49.429 61.1204 49.1604 62.4388 49.1441 63.8548C49.1441 64.6198 49.2337 65.4092 49.4127 66.223H46.2144C46.1331 65.8323 46.0842 65.4417 46.068 65.0511C46.0517 64.6605 46.0354 64.2698 46.0191 63.8792C46.0191 62.04 46.3609 60.3148 47.0445 58.7034C47.7281 57.0921 48.6721 55.6842 49.8766 54.4798C51.081 53.2754 52.4889 52.3314 54.1002 51.6478C55.7115 50.9642 57.4368 50.6142 59.276 50.598C60.6269 50.598 61.8313 50.7526 62.8893 51.0618C63.9472 51.3711 64.9238 51.7943 65.8189 52.3314C66.7141 52.8685 67.5768 53.5277 68.4068 54.3089C69.2369 55.0902 70.0995 55.9284 70.9947 56.8235C71.8899 55.9121 72.7444 55.0739 73.5582 54.3089C74.372 53.5439 75.2346 52.8929 76.1461 52.3558C77.0575 51.8187 78.0422 51.3874 79.1002 51.0618C80.1581 50.7363 81.3626 50.5817 82.7135 50.598C84.5364 50.598 86.2535 50.9398 87.8648 51.6234C89.4762 52.3069 90.8759 53.251 92.0641 54.4554C93.2522 55.6598 94.1962 57.0596 94.8961 58.6546C95.596 60.2497 95.9459 61.9668 95.9459 63.806C95.9459 65.3847 95.6692 66.9147 95.1158 68.3958C94.5624 69.8769 93.773 71.236 92.7477 72.473H81.273L78.8072 69.9827L70.9947 77.8196L60.0572 66.8577L54.4664 72.473Z" fill="#615FD7"/>
</g>
<path d="M115.519 71.0968C115.519 96.4362 94.5428 117.097 68.5191 117.097C42.4954 117.097 21.5191 96.4362 21.5191 71.0968C21.5191 45.7574 42.4954 25.0968 68.5191 25.0968C94.5428 25.0968 115.519 45.7574 115.519 71.0968Z" stroke="#FB8B24" stroke-width="7"/>
<path d="M108 44C108 44 119.49 44 139.785 53.5443C160.081 63.0886 114.591 66.0901 114.591 66.0901C114.591 66.0901 101.089 69.9417 98.2896 82.5C95.4903 95.0583 122.989 94.7356 121.589 110.308C120.19 125.88 74.0002 119.852 74.0002 119.852" stroke="#615FD7" stroke-width="0.5"/>
<path d="M85.4079 52.1976C85.4079 52.1976 92.1837 15.8477 77.7001 8.89183C63.2164 1.936 54.2569 10.9928 50.6039 20.1968C46.9509 29.4008 56.5001 44.1992 43.0001 43.5C29.5001 42.8008 19.0956 34.8478 12.5478 48.4239C6 62 26.5191 83.5967 26.5191 83.5967" stroke="#615FD7" stroke-width="0.5"/>
<path d="M29.2535 141.534H32.4176L36.5191 153.734L40.609 141.534H43.773L37.7965 158.597H35.2301L29.2535 141.534ZM27.4254 141.534H30.648L31.2457 154.179V158.597H27.4254V141.534ZM42.3785 141.534H45.6129V158.597H41.7808V154.179L42.3785 141.534ZM52.0816 157.132L55.398 145.917H59.3355L54.2379 160.495C54.1285 160.816 53.9801 161.159 53.7926 161.526C53.6129 161.894 53.3668 162.245 53.0543 162.581C52.7496 162.917 52.359 163.191 51.8824 163.401C51.4058 163.612 50.8199 163.718 50.1246 163.718C49.773 163.718 49.4996 163.698 49.3043 163.659C49.1168 163.628 48.8668 163.573 48.5543 163.495L48.5426 160.835C48.6441 160.835 48.734 160.835 48.8121 160.835C48.898 160.843 48.984 160.847 49.0699 160.847C49.5074 160.847 49.859 160.8 50.1246 160.706C50.398 160.612 50.609 160.472 50.7574 160.284C50.9137 160.105 51.0387 159.874 51.1324 159.593L52.0816 157.132ZM50.9683 145.917L53.5933 154.941L54.0387 158.819L51.566 158.948L47.0308 145.917H50.9683ZM64.5269 141.534V158.597H60.7066V141.534H64.5269ZM71.2418 148.73V151.683H63.4605V148.73H71.2418ZM71.9918 141.534V144.499H63.4605V141.534H71.9918ZM77.523 145.917V158.597H73.8551V145.917H77.523ZM73.6324 142.636C73.6324 142.105 73.8199 141.671 74.1949 141.335C74.5699 140.991 75.0621 140.819 75.6715 140.819C76.2808 140.819 76.773 140.991 77.148 141.335C77.5308 141.671 77.7223 142.105 77.7223 142.636C77.7223 143.159 77.5308 143.593 77.148 143.937C76.773 144.273 76.2808 144.441 75.6715 144.441C75.0621 144.441 74.5699 144.273 74.1949 143.937C73.8199 143.593 73.6324 143.159 73.6324 142.636ZM86.6051 145.917V148.484H79.0816V145.917H86.6051ZM80.8043 142.776H84.4723V154.624C84.4723 154.976 84.5152 155.245 84.6012 155.433C84.6871 155.62 84.8277 155.753 85.023 155.831C85.2183 155.901 85.4683 155.937 85.773 155.937C85.9918 155.937 86.1793 155.929 86.3355 155.913C86.4918 155.898 86.6363 155.878 86.7691 155.855V158.503C86.4566 158.605 86.1246 158.683 85.773 158.737C85.4215 158.8 85.0387 158.831 84.6246 158.831C83.8355 158.831 83.1519 158.702 82.5738 158.444C82.0035 158.187 81.566 157.78 81.2613 157.226C80.9566 156.663 80.8043 155.933 80.8043 155.034V142.776ZM99.6832 155.644V158.597H91.0699V155.644H99.6832ZM92.3707 141.534V158.597H88.5504V141.534H92.3707ZM100.843 152.386V152.14C100.843 151.21 100.976 150.355 101.242 149.573C101.507 148.784 101.898 148.101 102.414 147.523C102.929 146.944 103.562 146.495 104.312 146.175C105.062 145.847 105.921 145.683 106.89 145.683C107.875 145.683 108.742 145.847 109.492 146.175C110.25 146.495 110.886 146.944 111.402 147.523C111.918 148.101 112.308 148.784 112.574 149.573C112.839 150.355 112.972 151.21 112.972 152.14V152.386C112.972 153.308 112.839 154.163 112.574 154.952C112.308 155.734 111.918 156.417 111.402 157.003C110.886 157.581 110.254 158.03 109.504 158.351C108.754 158.671 107.89 158.831 106.914 158.831C105.945 158.831 105.082 158.671 104.324 158.351C103.566 158.03 102.929 157.581 102.414 157.003C101.898 156.417 101.507 155.734 101.242 154.952C100.976 154.163 100.843 153.308 100.843 152.386ZM104.511 152.14V152.386C104.511 152.886 104.55 153.355 104.629 153.792C104.714 154.23 104.851 154.612 105.039 154.941C105.226 155.269 105.472 155.526 105.777 155.714C106.089 155.894 106.468 155.984 106.914 155.984C107.359 155.984 107.734 155.894 108.039 155.714C108.343 155.526 108.589 155.269 108.777 154.941C108.964 154.612 109.097 154.23 109.175 153.792C109.261 153.355 109.304 152.886 109.304 152.386V152.14C109.304 151.648 109.261 151.187 109.175 150.757C109.097 150.319 108.964 149.933 108.777 149.597C108.589 149.261 108.339 148.999 108.027 148.812C107.722 148.624 107.343 148.53 106.89 148.53C106.453 148.53 106.082 148.624 105.777 148.812C105.472 148.999 105.226 149.261 105.039 149.597C104.851 149.933 104.714 150.319 104.629 150.757C104.55 151.187 104.511 151.648 104.511 152.14ZM122.886 145.917H126.214V158.14C126.214 159.304 125.949 160.292 125.418 161.105C124.894 161.917 124.164 162.534 123.226 162.956C122.289 163.378 121.191 163.589 119.933 163.589C119.386 163.589 118.816 163.515 118.222 163.366C117.629 163.226 117.07 163.011 116.546 162.722C116.023 162.441 115.586 162.081 115.234 161.644L116.793 159.487C117.152 159.894 117.582 160.222 118.082 160.472C118.582 160.73 119.152 160.859 119.793 160.859C120.379 160.859 120.875 160.753 121.281 160.542C121.687 160.331 121.996 160.023 122.207 159.616C122.425 159.21 122.535 158.718 122.535 158.14V148.882L122.886 145.917ZM114.414 152.409V152.163C114.414 151.202 114.531 150.327 114.765 149.538C115 148.741 115.339 148.058 115.785 147.487C116.238 146.909 116.781 146.464 117.414 146.151C118.054 145.839 118.773 145.683 119.57 145.683C120.429 145.683 121.14 145.847 121.703 146.175C122.265 146.495 122.722 146.948 123.074 147.534C123.425 148.112 123.703 148.796 123.906 149.585C124.109 150.366 124.273 151.214 124.398 152.128V152.55C124.273 153.425 124.093 154.241 123.859 154.999C123.625 155.757 123.32 156.425 122.945 157.003C122.57 157.573 122.101 158.023 121.539 158.351C120.984 158.671 120.32 158.831 119.546 158.831C118.757 158.831 118.046 158.671 117.414 158.351C116.781 158.03 116.238 157.581 115.785 157.003C115.339 156.425 115 155.745 114.765 154.964C114.531 154.183 114.414 153.331 114.414 152.409ZM118.07 152.163V152.409C118.07 152.909 118.117 153.374 118.211 153.804C118.312 154.234 118.461 154.612 118.656 154.941C118.859 155.269 119.109 155.526 119.406 155.714C119.711 155.894 120.066 155.984 120.472 155.984C121.066 155.984 121.546 155.859 121.914 155.609C122.289 155.351 122.562 154.995 122.734 154.542C122.914 154.089 123.007 153.562 123.015 152.96V151.73C123.015 151.23 122.964 150.78 122.863 150.382C122.761 149.984 122.609 149.648 122.406 149.374C122.211 149.101 121.953 148.894 121.632 148.753C121.32 148.605 120.941 148.53 120.496 148.53C120.097 148.53 119.746 148.624 119.441 148.812C119.136 148.991 118.882 149.245 118.679 149.573C118.476 149.901 118.324 150.288 118.222 150.734C118.121 151.171 118.07 151.648 118.07 152.163Z" fill="#615FD7"/>
<defs>
<clipPath id="clip0_3_17">
<rect width="50" height="50" fill="white" transform="translate(46.0191 47.5968)"/>
</clipPath>
</defs>
</svg>
