<svg width="99" height="113" viewBox="0 0 99 113" fill="none" xmlns="http://www.w3.org/2000/svg">
<g clip-path="url(#clip0_21_187)">
<path d="M36.627 49.5896H35.9816L47.8316 61.6217L57.5632 51.7406H60.5588L47.8316 64.6633L33.5156 50.1441C33.1294 49.752 32.7874 49.3319 32.4895 48.8838C32.1916 48.4357 31.9323 47.9539 31.7116 47.4386H35.7333L40.4171 42.6997L47.8316 50.2114L53.1277 44.8507L55.693 47.4386H61.5684C61.9215 46.8672 62.1918 46.2623 62.3793 45.6237C62.5669 44.9851 62.6607 44.3297 62.6607 43.6576C62.6607 42.6829 62.4842 41.7754 62.1311 40.9352C61.778 40.095 61.287 39.3668 60.6581 38.7506C60.0292 38.1344 59.301 37.6471 58.4735 37.2886C57.646 36.9301 56.7467 36.7509 55.7758 36.7509C54.8489 36.7509 54.027 36.8965 53.3098 37.1878C52.5926 37.4791 51.9306 37.8712 51.3237 38.3641C50.7169 38.857 50.1376 39.4004 49.5859 39.9942C49.0343 40.5879 48.4495 41.2097 47.8316 41.8595C47.2358 41.2545 46.6565 40.6439 46.0938 40.0278C45.5311 39.4116 44.9463 38.857 44.3395 38.3641C43.7327 37.8712 43.0651 37.4679 42.3369 37.1542C41.6087 36.8405 40.7922 36.6837 39.8875 36.6837C38.9386 36.6837 38.0504 36.8629 37.2229 37.2214C36.3953 37.5799 35.6671 38.0784 35.0382 38.717C34.4093 39.3556 33.9183 40.095 33.5652 40.9352C33.2122 41.7754 33.0301 42.6829 33.0191 43.6576C33.0191 44.1841 33.0798 44.7275 33.2011 45.2876H31.033C30.9779 45.0187 30.9448 44.7499 30.9337 44.481C30.9227 44.2121 30.9117 43.9432 30.9006 43.6744C30.9006 42.4084 31.1323 41.2209 31.5957 40.1118C32.0592 39.0027 32.6991 38.0336 33.5156 37.2046C34.3321 36.3756 35.2865 35.7258 36.3788 35.2553C37.4711 34.7847 38.6407 34.5439 39.8875 34.5327C40.8032 34.5327 41.6197 34.6391 42.3369 34.8519C43.0541 35.0648 43.7161 35.3561 44.3229 35.7258C44.9298 36.0955 45.5146 36.5492 46.0773 37.087C46.64 37.6247 47.2248 38.2017 47.8316 38.8178C48.4385 38.1905 49.0177 37.6135 49.5694 37.087C50.1211 36.5604 50.7059 36.1123 51.3237 35.7426C51.9416 35.3729 52.6091 35.076 53.3263 34.8519C54.0435 34.6279 54.86 34.5215 55.7758 34.5327C57.0115 34.5327 58.1756 34.7679 59.2679 35.2385C60.3602 35.709 61.3091 36.3588 62.1145 37.1878C62.92 38.0168 63.5599 38.9803 64.0344 40.0782C64.5088 41.1761 64.746 42.358 64.746 43.624C64.746 44.7107 64.5585 45.7637 64.1833 46.7832C63.8082 47.8027 63.2731 48.7382 62.5779 49.5896H54.7993L53.1277 47.8755L47.8316 53.2698L40.4171 45.7245L36.627 49.5896Z" fill="black"/>
</g>
<path d="M76.8874 48.6424C76.8874 65.511 63.1431 79.2141 46.1534 79.2141C29.1638 79.2141 15.4194 65.511 15.4194 48.6424C15.4194 31.7738 29.1638 18.0707 46.1534 18.0707C63.1431 18.0707 76.8874 31.7738 76.8874 48.6424Z" stroke="black" stroke-width="7"/>
<path d="M76.8874 48.6424C76.8874 65.511 63.1431 79.2141 46.1534 79.2141C29.1638 79.2141 15.4194 65.511 15.4194 48.6424C15.4194 31.7738 29.1638 18.0707 46.1534 18.0707C63.1431 18.0707 76.8874 31.7738 76.8874 48.6424Z" stroke="black" stroke-opacity="0.2" stroke-width="7"/>
<path d="M72.9177 29.9912C72.9177 29.9912 80.7066 29.9912 94.4649 36.5607C108.223 43.1302 77.3857 45.1962 77.3857 45.1962C77.3857 45.1962 68.2327 47.8473 66.335 56.4914C64.4373 65.1355 83.0787 64.9134 82.1299 75.632C81.1811 86.3507 49.8691 82.2015 49.8691 82.2015" stroke="black" stroke-width="0.5"/>
<path d="M57.6022 35.6337C57.6022 35.6337 62.1956 10.6134 52.3771 5.8256C42.5586 1.03778 36.485 7.27176 34.0086 13.607C31.5322 19.9423 38.0056 30.1283 28.8539 29.647C19.7023 29.1657 12.6491 23.6915 8.21032 33.0362C3.77155 42.3809 17.6815 57.2463 17.6815 57.2463" stroke="black" stroke-width="0.5"/>
<path d="M18.2525 106.727V97.6272H20.3715L24.1415 103.815H23.0235L26.6895 97.6272H28.8085L28.8345 106.727H26.4685L26.4425 101.228H26.8455L24.1025 105.83H22.9585L20.1375 101.228H20.6315V106.727H18.2525ZM31.7478 109.366C31.3752 109.366 30.9982 109.306 30.6168 109.184C30.2442 109.072 29.9408 108.92 29.7068 108.729L30.5648 107C30.7122 107.13 30.8812 107.23 31.0718 107.299C31.2712 107.377 31.4662 107.416 31.6568 107.416C31.9255 107.416 32.1378 107.356 32.2938 107.234C32.4498 107.113 32.5842 106.922 32.6968 106.662L33.0218 105.843L33.2168 105.596L35.6089 99.6812H37.9618L34.9199 107.013C34.6772 107.62 34.3955 108.092 34.0748 108.43C33.7628 108.777 33.4118 109.02 33.0218 109.158C32.6405 109.297 32.2158 109.366 31.7478 109.366ZM32.7098 107.026L29.6028 99.6812H32.1378L34.4258 105.375L32.7098 107.026ZM41.1094 101.618H45.3084V103.607H41.1094V101.618ZM41.2914 106.727H38.7174V97.6272H45.8544V99.6162H41.2914V106.727ZM46.9412 106.727V99.6812H49.4112V106.727H46.9412ZM48.1762 98.9012C47.7255 98.9012 47.3615 98.7755 47.0842 98.5242C46.8069 98.2728 46.6682 97.9608 46.6682 97.5882C46.6682 97.2155 46.8069 96.9035 47.0842 96.6522C47.3615 96.4008 47.7255 96.2752 48.1762 96.2752C48.6269 96.2752 48.9909 96.3965 49.2682 96.6392C49.5455 96.8732 49.6842 97.1765 49.6842 97.5492C49.6842 97.9392 49.5455 98.2642 49.2682 98.5242C48.9995 98.7755 48.6355 98.9012 48.1762 98.9012ZM54.1624 106.844C53.2611 106.844 52.5591 106.623 52.0564 106.181C51.5537 105.731 51.3024 105.055 51.3024 104.153V98.1082H53.7724V104.127C53.7724 104.379 53.8417 104.578 53.9804 104.725C54.1191 104.864 54.2967 104.933 54.5134 104.933C54.8081 104.933 55.0594 104.86 55.2674 104.712L55.8784 106.441C55.6704 106.58 55.4147 106.68 55.1114 106.74C54.8081 106.81 54.4917 106.844 54.1624 106.844ZM50.2754 101.787V99.9412H55.3844V101.787H50.2754ZM56.9478 106.727V97.6272H59.5218V104.686H63.8638V106.727H56.9478ZM68.276 106.844C67.5047 106.844 66.82 106.688 66.222 106.376C65.624 106.064 65.1517 105.635 64.805 105.089C64.467 104.535 64.298 103.902 64.298 103.191C64.298 102.481 64.467 101.852 64.805 101.306C65.1517 100.76 65.624 100.336 66.222 100.032C66.82 99.7202 67.5047 99.5642 68.276 99.5642C69.0474 99.5642 69.732 99.7202 70.33 100.032C70.9367 100.336 71.409 100.76 71.747 101.306C72.085 101.852 72.254 102.481 72.254 103.191C72.254 103.902 72.085 104.535 71.747 105.089C71.409 105.635 70.9367 106.064 70.33 106.376C69.732 106.688 69.0474 106.844 68.276 106.844ZM68.276 104.881C68.562 104.881 68.8134 104.816 69.03 104.686C69.2554 104.556 69.433 104.366 69.563 104.114C69.693 103.854 69.758 103.547 69.758 103.191C69.758 102.836 69.693 102.537 69.563 102.294C69.433 102.043 69.2554 101.852 69.03 101.722C68.8134 101.592 68.562 101.527 68.276 101.527C67.9987 101.527 67.7474 101.592 67.522 101.722C67.3054 101.852 67.1277 102.043 66.989 102.294C66.859 102.537 66.794 102.836 66.794 103.191C66.794 103.547 66.859 103.854 66.989 104.114C67.1277 104.366 67.3054 104.556 67.522 104.686C67.7474 104.816 67.9987 104.881 68.276 104.881ZM76.8432 109.366C76.1672 109.366 75.5216 109.288 74.9062 109.132C74.2996 108.976 73.7796 108.747 73.3462 108.443L74.2432 106.714C74.5379 106.948 74.9019 107.13 75.3352 107.26C75.7772 107.399 76.2062 107.468 76.6222 107.468C77.2896 107.468 77.7706 107.321 78.0652 107.026C78.3599 106.74 78.5072 106.32 78.5072 105.765V104.933L78.6372 102.957L78.6242 100.968V99.6812H80.9772V105.44C80.9772 106.775 80.6176 107.763 79.8982 108.404C79.1789 109.046 78.1606 109.366 76.8432 109.366ZM76.4142 106.363C75.7902 106.363 75.2139 106.225 74.6852 105.947C74.1652 105.661 73.7449 105.267 73.4242 104.764C73.1122 104.253 72.9562 103.651 72.9562 102.957C72.9562 102.264 73.1122 101.666 73.4242 101.163C73.7449 100.652 74.1652 100.258 74.6852 99.9802C75.2139 99.7028 75.7902 99.5642 76.4142 99.5642C77.0122 99.5642 77.5236 99.6855 77.9482 99.9282C78.3729 100.162 78.6936 100.531 78.9102 101.033C79.1356 101.536 79.2482 102.177 79.2482 102.957C79.2482 103.737 79.1356 104.379 78.9102 104.881C78.6936 105.384 78.3729 105.757 77.9482 105.999C77.5236 106.242 77.0122 106.363 76.4142 106.363ZM76.9992 104.4C77.2939 104.4 77.5539 104.34 77.7792 104.218C78.0132 104.097 78.1952 103.928 78.3252 103.711C78.4639 103.495 78.5332 103.243 78.5332 102.957C78.5332 102.671 78.4639 102.42 78.3252 102.203C78.1952 101.987 78.0132 101.822 77.7792 101.709C77.5539 101.588 77.2939 101.527 76.9992 101.527C76.7046 101.527 76.4402 101.588 76.2062 101.709C75.9722 101.822 75.7859 101.987 75.6472 102.203C75.5172 102.42 75.4522 102.671 75.4522 102.957C75.4522 103.243 75.5172 103.495 75.6472 103.711C75.7859 103.928 75.9722 104.097 76.2062 104.218C76.4402 104.34 76.7046 104.4 76.9992 104.4Z" fill="black"/>
<defs>
<clipPath id="clip0_21_187">
<rect width="33.8951" height="34.4158" fill="white" transform="translate(30.9006 32.4669)"/>
</clipPath>
</defs>
</svg>
