<svg width="86" height="85" viewBox="0 0 86 85" fill="none" xmlns="http://www.w3.org/2000/svg">
<path d="M7.58333 74.375C6.57986 74.375 5.73812 74.035 5.05812 73.355C4.37812 72.675 4.0393 71.8345 4.04166 70.8333C4.04166 69.8299 4.38166 68.9881 5.06166 68.3081C5.74166 67.6281 6.58222 67.2893 7.58333 67.2917H78.4167C79.4201 67.2917 80.2619 67.6317 80.9419 68.3117C81.6219 68.9917 81.9607 69.8322 81.9583 70.8333C81.9583 71.8368 81.6183 72.6786 80.9383 73.3586C80.2583 74.0386 79.4178 74.3774 78.4167 74.375H7.58333ZM14.6667 63.75C12.7187 63.75 11.0506 63.0558 9.66229 61.6675C8.27396 60.2792 7.58097 58.6122 7.58333 56.6667V17.7083C7.58333 15.7604 8.2775 14.0923 9.66583 12.704C11.0542 11.3156 12.7211 10.6226 14.6667 10.625H71.3333C73.2812 10.625 74.9494 11.3192 76.3377 12.7075C77.726 14.0958 78.419 15.7628 78.4167 17.7083V56.6667C78.4167 58.6146 77.7225 60.2827 76.3342 61.6711C74.9458 63.0594 73.2789 63.7524 71.3333 63.75H14.6667ZM14.6667 56.6667H71.3333V17.7083H14.6667V56.6667Z" fill="#615FD7"/>
</svg>
