<svg width="60" height="60" viewBox="0 0 60 60" fill="none" xmlns="http://www.w3.org/2000/svg">
<path d="M40.0001 5C40.989 5 41.9557 5.29324 42.778 5.84265C43.6002 6.39206 44.2411 7.17295 44.6195 8.08658C44.9979 9.00021 45.097 10.0055 44.904 10.9755C44.7111 11.9454 44.2349 12.8363 43.5356 13.5355C42.8364 14.2348 41.9455 14.711 40.9755 14.9039C40.0056 15.0969 39.0003 14.9978 38.0867 14.6194C37.173 14.241 36.3922 13.6001 35.8428 12.7778C35.2933 11.9556 35.0001 10.9889 35.0001 10C35.0001 8.67392 35.5269 7.40215 36.4646 6.46447C37.4022 5.52678 38.674 5 40.0001 5ZM30.1001 7.5C30.8418 7.5 31.5668 7.71993 32.1835 8.13199C32.8002 8.54404 33.2808 9.12971 33.5646 9.81494C33.8485 10.5002 33.9227 11.2542 33.778 11.9816C33.6333 12.709 33.2762 13.3772 32.7517 13.9017C32.2273 14.4261 31.5591 14.7832 30.8317 14.9279C30.1043 15.0726 29.3503 14.9984 28.665 14.7145C27.9798 14.4307 27.3941 13.9501 26.9821 13.3334C26.57 12.7167 26.3501 11.9917 26.3501 11.25C26.3501 10.2554 26.7452 9.30161 27.4484 8.59835C28.1517 7.89509 29.1055 7.5 30.1001 7.5ZM22.7251 11.25C23.2196 11.25 23.7029 11.3966 24.114 11.6713C24.5251 11.946 24.8456 12.3365 25.0348 12.7933C25.224 13.2501 25.2735 13.7528 25.1771 14.2377C25.0806 14.7227 24.8425 15.1681 24.4929 15.5178C24.1432 15.8674 23.6978 16.1055 23.2128 16.202C22.7279 16.2984 22.2252 16.2489 21.7684 16.0597C21.3116 15.8705 20.9211 15.55 20.6464 15.1389C20.3717 14.7278 20.2251 14.2445 20.2251 13.75C20.2251 13.087 20.4885 12.4511 20.9573 11.9822C21.4262 11.5134 22.0621 11.25 22.7251 11.25ZM17.6001 15C18.0946 15 18.5779 15.1466 18.989 15.4213C19.4001 15.696 19.7206 16.0865 19.9098 16.5433C20.099 17.0001 20.1485 17.5028 20.0521 17.9877C19.9556 18.4727 19.7175 18.9181 19.3679 19.2678C19.0182 19.6174 18.5728 19.8555 18.0878 19.952C17.6029 20.0484 17.1002 19.9989 16.6434 19.8097C16.1866 19.6205 15.7961 19.3 15.5214 18.8889C15.2467 18.4778 15.1001 17.9945 15.1001 17.5C15.1001 16.837 15.3635 16.2011 15.8323 15.7322C16.3012 15.2634 16.9371 15 17.6001 15ZM36.3251 30C37.1972 29.9943 38.0585 29.8061 38.8535 29.4475C39.6485 29.089 40.3597 28.568 40.9413 27.9181C41.5229 27.2682 41.9621 26.5038 42.2305 25.674C42.499 24.8442 42.5908 23.9674 42.5001 23.1C42.281 21.5321 41.4973 20.098 40.2959 19.0669C39.0945 18.0358 37.5581 17.4787 35.9751 17.5H29.7751C26.4909 17.496 23.2961 18.57 20.6812 20.5572C18.0663 22.5443 16.1759 25.3347 15.3001 28.5C14.9657 29.6616 15.0634 30.9049 15.5751 32C16.6924 34.307 17.2736 36.8367 17.2751 39.4C17.1968 41.8204 16.609 44.1971 15.5501 46.375C15.2298 47.0711 15.0808 47.8338 15.1156 48.5993C15.1504 49.3648 15.368 50.1108 15.7501 50.775C16.7525 52.3716 18.2286 53.6152 19.972 54.3324C21.7155 55.0495 23.6394 55.2042 25.4751 54.775C26.8365 54.4602 28.1026 53.8239 29.1677 52.9194C30.2327 52.0149 31.0657 50.8685 31.5968 49.5761C32.128 48.2837 32.3419 46.8829 32.2207 45.4909C32.0995 44.0989 31.6466 42.7561 30.9001 41.575C30.1171 40.3637 29.7244 38.9414 29.7751 37.5C29.7751 37.5 29.2001 30 36.3251 30Z" fill="#615FD7"/>
</svg>
