<svg width="86" height="85" viewBox="0 0 86 85" fill="none" xmlns="http://www.w3.org/2000/svg">
<path d="M71.3333 35.4166C68.9069 31.2721 64.9757 28.2229 60.3579 26.9035C55.7401 25.5841 50.7914 26.0963 46.5417 28.3333V10.625H39.4583V28.3333C35.2086 26.0963 30.2599 25.5841 25.6421 26.9035C21.0243 28.2229 17.0931 31.2721 14.6667 35.4166C7.58334 46.0416 25.2917 77.9166 32.375 77.9166C39.4583 77.9166 39.4583 74.375 43 74.375C46.5417 74.375 46.5417 77.9166 53.625 77.9166C60.7083 77.9166 78.4167 46.0416 71.3333 35.4166ZM65.1354 47.3875C62.9396 56.1354 58.6188 64.175 52.5625 70.8333C51.8542 70.8333 51.0396 70.4791 50.4375 69.9479C48.3324 68.2458 45.7071 67.3172 43 67.3172C40.2929 67.3172 37.6676 68.2458 35.5625 69.9479C34.9604 70.4791 34.1458 70.8333 33.4375 70.8333C27.3644 64.1972 23.043 56.1507 20.8646 47.4229C19.9792 44.8375 19.8021 42.0395 20.5458 39.3833C21.5539 37.586 23.0101 36.0803 24.7727 35.0128C26.5354 33.9453 28.5444 33.3523 30.6042 33.2916C32.5875 33.327 34.5354 33.7875 36.3063 34.6729L39.4583 36.2666H46.5417L49.6938 34.6729C51.4646 33.7875 53.4125 33.327 55.3958 33.2916C59.575 33.3979 63.4 35.7 65.4542 39.3479C66.1979 42.0041 66.0208 44.802 65.1354 47.3875ZM39.4583 17.7083C19.5542 28.5812 15.0563 13.3875 15.0563 13.3875C15.0563 13.3875 24.4771 0.672872 39.4583 17.7083Z" fill="#615FD7"/>
</svg>
