<svg width="86" height="85" viewBox="0 0 86 85" fill="none" xmlns="http://www.w3.org/2000/svg">
<path d="M35.775 40.0562C38.8208 28.6875 41.2292 21.25 46.5417 21.25C51.8542 21.25 54.2625 28.6875 57.3083 40.0562C60.7083 52.8416 64.6042 67.2916 78.4167 67.2916V60.2083C70.625 60.2083 67.7917 51.4958 64.1437 38.25C60.9917 26.4208 57.6979 14.1666 46.5417 14.1666C35.3854 14.1666 32.0917 26.4208 28.9396 38.25C25.3979 51.4958 22.4583 60.2083 14.6667 60.2083V7.08331H7.58333V77.9166H78.4167V70.8333H14.6667V67.2916C28.4792 67.2916 32.375 52.8416 35.775 40.0562Z" fill="#615FD7"/>
</svg>
