<svg width="30" height="30" viewBox="0 0 30 30" fill="none" xmlns="http://www.w3.org/2000/svg">
<path d="M7.5 10.3125C7.5 8.32338 8.29018 6.41572 9.6967 5.0092C11.1032 3.60268 13.0109 2.8125 15 2.8125C16.9891 2.8125 18.8968 3.60268 20.3033 5.0092C21.7098 6.41572 22.5 8.32338 22.5 10.3125C22.5 12.3016 21.7098 14.2093 20.3033 15.6158C18.8968 17.0223 16.9891 17.8125 15 17.8125C13.0109 17.8125 11.1032 17.0223 9.6967 15.6158C8.29018 14.2093 7.5 12.3016 7.5 10.3125ZM22.957 3.75C21.0645 1.45898 18.2051 0 15 0C11.7949 0 8.93555 1.45898 7.04297 3.75H3.75C1.68164 3.75 0 5.43164 0 7.5V26.25C0 28.3184 1.68164 30 3.75 30H26.25C28.3184 30 30 28.3184 30 26.25V7.5C30 5.43164 28.3184 3.75 26.25 3.75H22.957ZM17.3438 13.125C17.3438 12.5039 17.1035 11.9414 16.7051 11.5195L18.6738 6.93164C18.8789 6.45703 18.6562 5.90625 18.1816 5.70117C17.707 5.49609 17.1562 5.71875 16.9512 6.19336L14.9824 10.7812C13.6934 10.7871 12.6562 11.8359 12.6562 13.125C12.6562 14.4199 13.7051 15.4688 15 15.4688C16.2949 15.4688 17.3438 14.4199 17.3438 13.125Z" fill="black"/>
</svg>
